<?xml version="1.0" encoding="UTF-8" standalone="no"?>
<!DOCTYPE svg PUBLIC "-//W3C//DTD SVG 1.1//EN" "http://www.w3.org/Graphics/SVG/1.1/DTD/svg11.dtd">
<svg width="456" height="456" viewBox="0 0 456 456" version="1.1" xmlns="http://www.w3.org/2000/svg" xmlns:xlink="http://www.w3.org/1999/xlink" xml:space="preserve" xmlns:serif="http://www.serif.com/" style="fill-rule:evenodd;clip-rule:evenodd;stroke-linejoin:round;stroke-miterlimit:2;">
    <!-- Centered composition for splash: paw + syringe underneath -->
    <!-- Paw -->
    <g fill="#ffffff" opacity="1">
        <!-- Toe beans -->
        <circle cx="156" cy="172" r="26"/>
        <circle cx="202" cy="154" r="28"/>
        <circle cx="254" cy="154" r="28"/>
        <circle cx="300" cy="172" r="26"/>
        <!-- Main pad -->
        <ellipse cx="228" cy="244" rx="92" ry="72"/>
    </g>

    <!-- Syringe (slightly rotated, below paw) -->
    <g transform="rotate(-20 228 320)" fill="#ffffff">
        <!-- Barrel -->
        <rect x="120" y="304" width="220" height="28" rx="7"/>
        <!-- Graduations -->
        <rect x="150" y="304" width="3" height="28"/>
        <rect x="172" y="304" width="3" height="28"/>
        <rect x="194" y="304" width="3" height="28"/>
        <rect x="216" y="304" width="3" height="28"/>
        <rect x="238" y="304" width="3" height="28"/>
        <rect x="260" y="304" width="3" height="28"/>
        <!-- Needle -->
        <rect x="332" y="314" width="70" height="6" rx="2"/>
        <!-- Hub -->
        <rect x="320" y="306" width="16" height="24" rx="4"/>
        <!-- Plunger -->
        <rect x="96" y="298" width="20" height="40" rx="4"/>
        <rect x="84" y="288" width="44" height="8" rx="3"/>
    </g>
</svg>