<?xml version="1.0" encoding="UTF-8" standalone="no"?>
<!DOCTYPE svg PUBLIC "-//W3C//DTD SVG 1.1//EN" "http://www.w3.org/Graphics/SVG/1.1/DTD/svg11.dtd">
<svg width="456" height="456" viewBox="0 0 456 456" version="1.1" xmlns="http://www.w3.org/2000/svg" xmlns:xlink="http://www.w3.org/1999/xlink" xml:space="preserve" xmlns:serif="http://www.serif.com/" style="fill-rule:evenodd;clip-rule:evenodd;stroke-linejoin:round;stroke-miterlimit:2;">
    <!-- Syringe (diagonal) -->
    <g transform="rotate(-25 228 228)" fill="#ffffff">
        <!-- Barrel -->
        <rect x="138" y="116" width="200" height="26" rx="6"/>
        <!-- Graduations -->
        <rect x="168" y="116" width="3" height="26"/>
        <rect x="188" y="116" width="3" height="26"/>
        <rect x="208" y="116" width="3" height="26"/>
        <rect x="228" y="116" width="3" height="26"/>
        <rect x="248" y="116" width="3" height="26"/>
        <rect x="268" y="116" width="3" height="26"/>
        <!-- Needle -->
        <rect x="338" y="126" width="70" height="6" rx="2"/>
        <!-- Hub -->
        <rect x="328" y="118" width="14" height="22" rx="4"/>
        <!-- Plunger -->
        <rect x="116" y="110" width="18" height="38" rx="4"/>
        <rect x="104" y="100" width="42" height="8" rx="3"/>
    </g>

    <!-- Paw (centered) -->
    <g fill="#ffffff" opacity="1">
        <!-- Toe beans -->
        <circle cx="172" cy="182" r="24"/>
        <circle cx="212" cy="168" r="26"/>
        <circle cx="244" cy="168" r="26"/>
        <circle cx="284" cy="182" r="24"/>
        <!-- Main pad -->
        <ellipse cx="228" cy="238" rx="82" ry="64"/>
    </g>
</svg>